# Blender v2.78 (sub 0) OBJ File: ''
# www.blender.org
mtllib easycube.mtl
o Cube
v 1.000000 -0.957237 -1.000000
v 1.000000 -0.957237 1.000000
v -1.000000 -0.957237 1.000000
v -1.000000 -0.957237 -1.000000
v 1.000000 1.042763 -0.999999
v 0.999999 1.042763 1.000001
v -1.000000 1.042763 1.000000
v -1.000000 1.042763 -1.000000
v -1.000000 1.042763 1.000000
vn 1.0000 -0.0000 0.0000
vn 0.0000 -0.0000 1.0000
vn 0.0000 -1.0000 0.0000
vn 0.0000 1.0000 0.0000
vn -1.0000 -0.0000 -0.0000
vn 0.0000 0.0000 -1.0000
usemtl Material
s off
f 5//1 2//1 1//1
f 6//2 3//2 2//2
f 2//3 3//3 4//3
f 8//4 9//4 6//4
f 3//5 9//5 8//5
f 1//6 4//6 8//6
usemtl Material.001
f 2//3 4//3 1//3
f 8//4 6//4 5//4
f 3//5 8//5 4//5
f 1//6 8//6 5//6
f 5//1 6//1 2//1
f 6//2 7//2 3//2
